<svg xmlns="http://www.w3.org/2000/svg" width="800" height="500" viewBox="0 0 800 500" role="img" aria-label="Red de hidrantes, gabinetes y mangueras contra incendio">
  <defs>
    <linearGradient id="pbg" x1="0" y1="0" x2="0" y2="1">
      <stop offset="0" stop-color="#ffffff"/>
      <stop offset="1" stop-color="#f1f3f6"/>
    </linearGradient>
    <filter id="psh" x="-20%" y="-20%" width="140%" height="140%">
      <feDropShadow dx="0" dy="6" stdDeviation="10" flood-color="#14181f" flood-opacity="0.10"/>
    </filter>
  </defs>
  <rect width="800" height="500" fill="url(#pbg)"/>
  <rect width="800" height="9" fill="#c62828"/>
  <rect x="40" y="42" width="720" height="416" rx="20" fill="none" stroke="#d6dae1" stroke-width="3" stroke-dasharray="12 12"/>
  <g transform="translate(400 215)">
    <rect x="-90" y="-82" width="180" height="164" rx="26" fill="#ffffff" filter="url(#psh)"/>
    <rect x="-26" y="-14" width="52" height="66" rx="10" fill="none" stroke="#c62828" stroke-width="9"/>
    <path d="M -30 -14 a 30 30 0 0 1 60 0" fill="none" stroke="#c62828" stroke-width="9"/>
    <rect x="-14" y="-52" width="28" height="12" rx="6" fill="#c62828"/>
    <line x1="-48" y1="14" x2="-26" y2="14" stroke="#c62828" stroke-width="9" stroke-linecap="round"/>
    <line x1="26" y1="14" x2="48" y2="14" stroke="#c62828" stroke-width="9" stroke-linecap="round"/>
    <circle cx="0" cy="20" r="12" fill="none" stroke="#c62828" stroke-width="7"/>
    <line x1="-40" y1="60" x2="40" y2="60" stroke="#d6dae1" stroke-width="8" stroke-linecap="round"/>
  </g>
  <text x="400" y="392" text-anchor="middle" font-family="system-ui, -apple-system, Segoe UI, sans-serif" font-size="26" font-weight="700" fill="#14181f">Red de hidrantes y gabinetes</text>
  <text x="400" y="424" text-anchor="middle" font-family="system-ui, -apple-system, Segoe UI, sans-serif" font-size="17" fill="#6b7280">Equipos Contra Incendio</text>
</svg>
